<svg id="Ebene_1" data-name="Ebene 1" xmlns="http://www.w3.org/2000/svg" viewBox="0 0 390.05 42.42">
  <g>
    <path d="M11.27,41.72,0,.56H3.82L13.14,36h.32L22.79.56h4.34L36.46,36h.32L46.1.56h3.84L38.67,41.72h-4L25.1,6.81h-.26L15.29,41.72Z" transform="translate(0 0)" fill="#fff"/>
    <path d="M56.75,41.72V.56H80.63V3.94H60.51V19.43H79.36v3.38H60.51V38.34H81v3.38Z" transform="translate(0 0)" fill="#fff"/>
    <path d="M90.33,41.72V.56h13.29a15.37,15.37,0,0,1,7.32,1.58,10.61,10.61,0,0,1,4.44,4.36,13.24,13.24,0,0,1,1.5,6.38,13,13,0,0,1-1.5,6.35,10.4,10.4,0,0,1-4.43,4.3,15.46,15.46,0,0,1-7.27,1.55H92.36V21.64h11.22a11.94,11.94,0,0,0,5.35-1.06,7.1,7.1,0,0,0,3.2-3,9.74,9.74,0,0,0,1.05-4.66,10,10,0,0,0-1.06-4.71A7.31,7.31,0,0,0,108.91,5a11.75,11.75,0,0,0-5.39-1.1H94.09V41.72Zm18.15-18.57,10.13,18.57h-4.34l-10-18.57Z" transform="translate(0 0)" fill="#fff"/>
    <path d="M123.55,3.94V.56h29.84V3.94h-13V41.72h-3.76V3.94Z" transform="translate(0 0)" fill="#fff"/>
    <path d="M188.62,13.42A15.18,15.18,0,0,0,187,9.58a12.93,12.93,0,0,0-2.69-3.16,12.12,12.12,0,0,0-3.67-2.12A13.4,13.4,0,0,0,176,3.54a12.73,12.73,0,0,0-7.19,2.09,14.15,14.15,0,0,0-5,6,22.33,22.33,0,0,0-1.83,9.48,22.19,22.19,0,0,0,1.84,9.47,14.28,14.28,0,0,0,5.08,6,14.11,14.11,0,0,0,14.1.41,11.73,11.73,0,0,0,4.55-4.83,15.66,15.66,0,0,0,1.6-7.45l1.2.38H177.13V21.78h15.63v3.38a18.44,18.44,0,0,1-2.13,9.1,15,15,0,0,1-5.84,5.93,17.18,17.18,0,0,1-24.25-7.87,26,26,0,0,1-2.24-11.18,28,28,0,0,1,1.28-8.74,19.77,19.77,0,0,1,3.65-6.67,16,16,0,0,1,5.6-4.25A16.94,16.94,0,0,1,176,0a17.28,17.28,0,0,1,6.18,1.06,16.54,16.54,0,0,1,5,2.93,16.35,16.35,0,0,1,3.51,4.28,15.84,15.84,0,0,1,1.86,5.15Z" transform="translate(0 0)" fill="#fff"/>
    <path d="M202.11,41.72V.56H226V3.94H205.87V19.43h18.85v3.38H205.87V38.34h20.52v3.38Z" transform="translate(0 0)" fill="#fff"/>
    <path d="M235.69,41.72V.56h13.89A14.3,14.3,0,0,1,256.28,2a9.54,9.54,0,0,1,4,3.84,11.28,11.28,0,0,1,1.34,5.52,10.2,10.2,0,0,1-.86,4.41,7.92,7.92,0,0,1-2.35,3,9.8,9.8,0,0,1-3.32,1.63v.32A7.8,7.8,0,0,1,259,22a9.51,9.51,0,0,1,3.08,3.5,11.32,11.32,0,0,1,1.2,5.39,10.94,10.94,0,0,1-1.39,5.55,9.45,9.45,0,0,1-4.25,3.84,16.57,16.57,0,0,1-7.28,1.4Zm3.76-22.57h10.47a8.71,8.71,0,0,0,4.26-1A7.26,7.26,0,0,0,257,15.37a7.93,7.93,0,0,0,1-4A7.08,7.08,0,0,0,255.93,6q-2.13-2.06-6.35-2.06H239.45Zm0,19.19h10.89c3.18,0,5.52-.7,7-2.11a6.9,6.9,0,0,0,2.28-5.3,8.13,8.13,0,0,0-4.33-7.32,9.9,9.9,0,0,0-4.83-1.12H239.45Z" transform="translate(0 0)" fill="#fff"/>
    <path d="M299.76.56h3.75V27.81a14.41,14.41,0,0,1-2,7.51,14,14,0,0,1-5.48,5.2,18.36,18.36,0,0,1-16.29,0,14.1,14.1,0,0,1-5.49-5.2,14.38,14.38,0,0,1-2-7.5V.56h3.76v27a11.52,11.52,0,0,0,1.47,5.84,10.47,10.47,0,0,0,4.13,4,14,14,0,0,0,12.49,0,10.4,10.4,0,0,0,4.13-4,11.61,11.61,0,0,0,1.46-5.84Z" transform="translate(0 0)" fill="#fff"/>
    <path d="M346.5.56V41.72h-3.66L318.53,7.25h-.33V41.72h-3.75V.56h3.63l24.4,34.51h.32V.56Z" transform="translate(0 0)" fill="#fff"/>
    <path d="M385.91,13.42a15.57,15.57,0,0,0-1.65-3.84,12.89,12.89,0,0,0-2.68-3.16A12.17,12.17,0,0,0,377.9,4.3a13.35,13.35,0,0,0-4.63-.76,12.76,12.76,0,0,0-7.2,2.09,14.2,14.2,0,0,0-5,6,22.17,22.17,0,0,0-1.84,9.48,22.18,22.18,0,0,0,1.85,9.47,14.19,14.19,0,0,0,5.07,6,14.11,14.11,0,0,0,14.1.41,11.73,11.73,0,0,0,4.55-4.83,15.43,15.43,0,0,0,1.6-7.45l1.21.38H374.41V21.78h15.64v3.38a18.44,18.44,0,0,1-2.13,9.1,15,15,0,0,1-5.85,5.93,18.44,18.44,0,0,1-18-.51,17.29,17.29,0,0,1-6.28-7.36,26,26,0,0,1-2.24-11.18,27.72,27.72,0,0,1,1.29-8.74,19.6,19.6,0,0,1,3.65-6.67,16,16,0,0,1,5.59-4.25A17,17,0,0,1,373.27,0a17.28,17.28,0,0,1,6.18,1.06,16.33,16.33,0,0,1,8.46,7.21,15.84,15.84,0,0,1,1.86,5.15Z" transform="translate(0 0)" fill="#fff"/>
  </g>
</svg>
